<svg id="logo-black" xmlns="http://www.w3.org/2000/svg" width="85.91" height="27" viewBox="0 0 85.91 27">
  <g id="g14" transform="translate(0)">
    <path id="path16" d="M81.689,382.252c-3.2-1.98-7.524-2.33-14.522-.466-7.483,1.67-9.951,2.757-13.228.582-1.254-1.048-1.7-2.757-1.375-5.242.809-4,2.912-7.882,6.634-12.153,2.1-2.252,4.045-4.155,6.594-4.931,1.942-.466,1.78,1.01,1.537,1.2a2.115,2.115,0,0,0-1.011.233,2.6,2.6,0,0,0-1.011,1.708c-.081,1.281,1.335,1.01,1.942.311.647-.815,1.618-2.369.849-3.805a2.12,2.12,0,0,0-1.537-.971c-2.346-.155-4.531.932-6.513,2.1A28.218,28.218,0,0,0,50.1,372.273c-1.133,2.679-2.184,6.523-.607,9.668,1.214,2.174,3.681,3.339,6.674,3.106a62.364,62.364,0,0,0,6.351-1.281c1.7-.388,10.4-3.262,13.268,1.747a3.824,3.824,0,0,1,3.317-1.825,11.321,11.321,0,0,1,6.836,2.019A16.967,16.967,0,0,0,81.689,382.252Z" transform="translate(-48.69 -358.708)" fill-rule="evenodd"/>
    <path id="path18" d="M114.174,398.434c-1.658-1.048-4.935.932-7.524,4.271-2.427,3.029-3.438,6.523-2.306,8.154,1.658,1.9,4.773-.854,6.108-2.33l.162-.194a21.266,21.266,0,0,0,2.265-3.106s.607-.971.647-1.048a8.421,8.421,0,0,0,1.375-.311c-.04.039-1.982,3.223-1.78,4.815a2.73,2.73,0,0,0,1.78,2.8c2.387.349,4.328-1.4,5.987-2.99l.445-.427c-.04.155-.081.388-.081.388-.688,2.33.243,2.8.849,2.99,1.78.5,3.924-1.98,3.924-1.98-.081.777-.243,1.437.647,1.942a2.656,2.656,0,0,0,2.265-.544,24.264,24.264,0,0,0,5.5-5.941h-.93s-2.306,3.184-3.8,3.883a.452.452,0,0,1-.4,0c-.2-.155-.121-.5,0-.738l5.744-9.59h-2.71s-.283.466-.324.5c0-.039-.04-.078-.081-.116-1.7-2.252-5.5,1.2-8.373,5.164a25.164,25.164,0,0,1-3.964,4.5s-2.144,1.9-3.074.544a2.492,2.492,0,0,1-.04-1.941,16,16,0,0,1,5.016-7.222,1.688,1.688,0,0,1,1.578-.388.651.651,0,0,1,.162.893,1.683,1.683,0,0,0-1.214.466,1.788,1.788,0,0,0-.647,1.825c.971,1.32,2.912-1.32,2.832-2.912a1.748,1.748,0,0,0-.849-1.4,3.036,3.036,0,0,0-2.468.039,10.89,10.89,0,0,0-3.277,2.446c-1.092,1.165-2.993,2.446-3.56,2.291C114.254,402.666,115.832,399.6,114.174,398.434Zm13.066,4.582c.526-.7,2.063-2.6,2.427-2.912,1.295-1.048,1.78-.582,1.82-.272-1.173,2.019-2.548,4.349-3.883,6.445.04-.039-.4.582-.4.582a5.519,5.519,0,0,1-2.1,2.058.547.547,0,0,1-.486-.039.524.524,0,0,1-.243-.5,13.882,13.882,0,0,1,2.872-5.358Zm-14.765,1.2s0,.078-.04.078l-1.173,1.864a9.421,9.421,0,0,1-2.71,2.6c-.324.116-.769.194-1.011-.116-.485-.544-.243-1.32-.04-1.98l.081-.194a18.872,18.872,0,0,1,2.427-4.194h.04v.039a4.021,4.021,0,0,0,2.468,1.747v.039A.291.291,0,0,1,112.475,404.219Zm1.133-2.174-.526,1.165a.46.46,0,0,1-.324,0l-.243-.039a2.121,2.121,0,0,1-1.456-1.243,2.43,2.43,0,0,1,1.133-2.252,1.366,1.366,0,0,1,1.416-.155,1.418,1.418,0,0,1,.324.971,5.6,5.6,0,0,1-.324,1.553Z" transform="translate(-94.806 -391.663)" fill-rule="evenodd"/>
    <path id="path20" d="M301.771,372.823a1.592,1.592,0,0,0-1.537-.854,7.131,7.131,0,0,0-5.38,4.31,12.436,12.436,0,0,0-1.092,3.96,11.253,11.253,0,0,1,3.6-2.64,7.21,7.21,0,0,1,1.254-2.99c.4-.582,1.254-1.514,2.144-1.243.809.233.526,2.369-.526,4.426a14.133,14.133,0,0,1-3.2,4.038c-1.092.893-2.67,1.941-4.085,1.126a2.961,2.961,0,0,1-1.214-2.873c.4-3.805,2.225-7.067,4.814-10.755,2.67-3.417,5.582-6.95,9.547-8.814a2.739,2.739,0,0,1,2.225-.272,14.368,14.368,0,0,0-5.5,5.591c-.445.932-1.092,2.174-.445,3.262a1.412,1.412,0,0,0,1.375.621c2.184-.5,3.6-2.446,4.733-4.232a9.733,9.733,0,0,0,1.254-4.193,2.822,2.822,0,0,0-.04-.582c1.052-.544,3.2.388,3.2.388,1.659.544,5.178,3.145,6.391,3.65.566-.66,1.537-1.631,2.063-2.136l-.769-.466c-1.254-.738-2.589-1.4-3.883-2.1a7.932,7.932,0,0,0-6.553-.583c-.485.155-.93.311-.93.311-.93-.971-2.387-.854-3.479-.621-3.964,1.087-7.6,3.766-11.529,8.348a29.322,29.322,0,0,0-5.623,9.784c-.769,2.058-.971,5.086.809,6.911,1.537,1.514,3.56,1.165,4.975.621a15.173,15.173,0,0,0,7.281-8.231A5.474,5.474,0,0,0,301.771,372.823Zm7.119-11.376c-.4,4.5-4.045,7.183-4.976,7.377-.526.116-1.456-.117-.647-2.019a12.894,12.894,0,0,1,5.582-5.824,1.971,1.971,0,0,1,.04.466Z" transform="translate(-248.667 -358.947)" fill-rule="evenodd"/>
    <path id="path22" d="M503.856,361.865a10.807,10.807,0,0,1-6.472,1.514c-.688.738-1.375,1.514-1.982,2.291,3.479.854,7.16-1.01,9.182-2.835a13.43,13.43,0,0,0,3.277-4.038,17.759,17.759,0,0,1-4,3.067Z" transform="translate(-421.951 -358.783)" fill-rule="evenodd"/>
    <path id="path24" d="M300.42,400.122h-2.589l-1.456,2.33h2.589Z" transform="translate(-255.649 -393.312)" fill-rule="evenodd"/>
    <path id="path26" d="M387.065,383.985c-.283.194-.688.039-.526-.388a22.872,22.872,0,0,1,1.78-3.223l4.045-6.872h-2.751c-.162.233-.445.7-.445.7a3.007,3.007,0,0,0-.647-.738,2.417,2.417,0,0,0-2.346.155c-2.953,1.67-5.1,4.931-6.8,7.494,0,0-1.82,2.834-2.791,3.067-.769.039-.688-.971-.688-1.2a20.757,20.757,0,0,1,1.7-4.737,32.785,32.785,0,0,0,4.571-3.572,45.979,45.979,0,0,0,6.31-7.028s-.445.078-.93.116c-2.468,3.3-7.524,8.115-9.061,8.814.647-1.553,5.056-9.047,8.778-12.619l.607-.544a6.709,6.709,0,0,1,2.589-1.864c.081-.039.162,0,.243.155a2.858,2.858,0,0,1-.526,1.708l-.4.815s.607-.116.971-.233a4.154,4.154,0,0,0,.768-2.8.8.8,0,0,0-.647-.66c-1.133-.194-2.346.582-3.317,1.242h-.04c-5.016,3.805-9.263,9.241-12.985,16.7a2.747,2.747,0,0,1-1.5.311,11.087,11.087,0,0,0,1.052-2.757,7.241,7.241,0,0,0,.081-.932,1.9,1.9,0,0,0-.769-1.67,2.669,2.669,0,0,0-2.184.078c-2.629,1.048-4.611,3.65-6.027,5.824a12.772,12.772,0,0,0-1.78,4.5c-.121,1.281.162,2.135.93,2.563a2.782,2.782,0,0,0,2.225-.194c2.67-1.359,4.571-4.077,6.027-6.6a7.015,7.015,0,0,0,1.5-.155h0c-.04.116-.324,1.009-.324,1.009-.971,2.64-1.375,4.426-.486,5.514,1.254,1.476,3.358-.078,5.056-2.1-.364,2.446.971,2.834,1.982,2.64a8.258,8.258,0,0,0,3.034-2.1c-.162.7-.121,1.98.93,2.136a2.9,2.9,0,0,0,1.9-.583c2.265-1.165,4.935-5.125,5.623-6.212h-.89C389.9,381.189,388.642,383.092,387.065,383.985Zm-20.226-.272a1.162,1.162,0,0,1-.2-.7c-.04-1.476,1.618-4.116,2.791-5.591h0a4.212,4.212,0,0,0,2.306,1.98C370.884,381.189,368.012,385.033,366.839,383.713Zm5.34-5.086A2.237,2.237,0,0,1,370.439,377a2.191,2.191,0,0,1,1.295-2.33,1.184,1.184,0,0,1,1.133-.194,1.056,1.056,0,0,1,.4.971,4.281,4.281,0,0,1-.04.738v.078A10.389,10.389,0,0,1,372.178,378.627Zm11.245,4.582-.283.233c-.364.311-.769.66-1.214.5a.373.373,0,0,1-.243-.349,5.47,5.47,0,0,1,.809-2.6l.121-.233a21.318,21.318,0,0,1,4.692-5.824c.364-.233.728-.466,1.133-.311.081.117.2.233.2.388a.4.4,0,0,1-.081.194c-.566.893-1.133,1.864-1.658,2.757a38.478,38.478,0,0,1-3.479,5.242Z" transform="translate(-311.632 -360.207)" fill-rule="evenodd"/>
  </g>
</svg>
